<mxfile host="app.diagrams.net" agent="Mozilla/5.0 (Windows NT 10.0; Win64; x64) AppleWebKit/537.36 (KHTML, like Gecko) Chrome/135.0.0.0 Safari/537.36" version="26.0.6">
  <diagram id="C5RBs43oDa-KdzZeNtuy" name="Page-1">
    <mxGraphModel dx="2589" dy="1982" grid="1" gridSize="10" guides="1" tooltips="1" connect="1" arrows="1" fold="1" page="1" pageScale="1" pageWidth="827" pageHeight="1169" math="0" shadow="0">
      <root>
        <mxCell id="WIyWlLk6GJQsqaUBKTNV-0" />
        <mxCell id="WIyWlLk6GJQsqaUBKTNV-1" parent="WIyWlLk6GJQsqaUBKTNV-0" />
        <mxCell id="2_OHSR7z_x44zHvHdEh8-45" style="edgeStyle=none;curved=1;rounded=0;orthogonalLoop=1;jettySize=auto;html=1;entryX=0.5;entryY=0;entryDx=0;entryDy=0;fontSize=12;startSize=8;endSize=8;" parent="WIyWlLk6GJQsqaUBKTNV-1" source="WIyWlLk6GJQsqaUBKTNV-11" target="2_OHSR7z_x44zHvHdEh8-3" edge="1">
          <mxGeometry relative="1" as="geometry" />
        </mxCell>
        <mxCell id="WIyWlLk6GJQsqaUBKTNV-11" value="Simulates Potential Outcome" style="rounded=1;whiteSpace=wrap;html=1;fontSize=12;glass=0;strokeWidth=1;shadow=0;" parent="WIyWlLk6GJQsqaUBKTNV-1" vertex="1">
          <mxGeometry x="140" y="60" width="120" height="30" as="geometry" />
        </mxCell>
        <mxCell id="2_OHSR7z_x44zHvHdEh8-46" style="edgeStyle=none;curved=1;rounded=0;orthogonalLoop=1;jettySize=auto;html=1;entryX=1;entryY=0.5;entryDx=0;entryDy=0;fontSize=12;startSize=8;endSize=8;" parent="WIyWlLk6GJQsqaUBKTNV-1" source="2_OHSR7z_x44zHvHdEh8-1" target="WIyWlLk6GJQsqaUBKTNV-11" edge="1">
          <mxGeometry relative="1" as="geometry">
            <Array as="points">
              <mxPoint x="350" y="60" />
            </Array>
          </mxGeometry>
        </mxCell>
        <mxCell id="2_OHSR7z_x44zHvHdEh8-1" value="Generates Avoidance Options" style="rounded=1;whiteSpace=wrap;html=1;" parent="WIyWlLk6GJQsqaUBKTNV-1" vertex="1">
          <mxGeometry x="450" y="30" width="120" height="30" as="geometry" />
        </mxCell>
        <mxCell id="2_OHSR7z_x44zHvHdEh8-44" value="" style="edgeStyle=none;curved=1;rounded=0;orthogonalLoop=1;jettySize=auto;html=1;fontSize=12;startSize=8;endSize=8;" parent="WIyWlLk6GJQsqaUBKTNV-1" source="2_OHSR7z_x44zHvHdEh8-3" target="2_OHSR7z_x44zHvHdEh8-4" edge="1">
          <mxGeometry relative="1" as="geometry" />
        </mxCell>
        <mxCell id="2_OHSR7z_x44zHvHdEh8-3" value="Rank Options by safety score" style="rounded=1;whiteSpace=wrap;html=1;fontSize=12;glass=0;strokeWidth=1;shadow=0;" parent="WIyWlLk6GJQsqaUBKTNV-1" vertex="1">
          <mxGeometry x="140" y="115" width="120" height="30" as="geometry" />
        </mxCell>
        <mxCell id="2_OHSR7z_x44zHvHdEh8-9" style="edgeStyle=none;curved=1;rounded=0;orthogonalLoop=1;jettySize=auto;html=1;entryX=0.25;entryY=0;entryDx=0;entryDy=0;fontSize=12;startSize=8;endSize=8;" parent="WIyWlLk6GJQsqaUBKTNV-1" source="2_OHSR7z_x44zHvHdEh8-4" target="2_OHSR7z_x44zHvHdEh8-6" edge="1">
          <mxGeometry relative="1" as="geometry" />
        </mxCell>
        <mxCell id="2_OHSR7z_x44zHvHdEh8-42" value="steer" style="edgeLabel;html=1;align=center;verticalAlign=middle;resizable=0;points=[];fontSize=12;" parent="2_OHSR7z_x44zHvHdEh8-9" vertex="1" connectable="0">
          <mxGeometry x="0.0747" y="1" relative="1" as="geometry">
            <mxPoint as="offset" />
          </mxGeometry>
        </mxCell>
        <mxCell id="2_OHSR7z_x44zHvHdEh8-11" style="edgeStyle=none;curved=1;rounded=0;orthogonalLoop=1;jettySize=auto;html=1;entryX=0.25;entryY=0;entryDx=0;entryDy=0;fontSize=12;startSize=8;endSize=8;" parent="WIyWlLk6GJQsqaUBKTNV-1" source="2_OHSR7z_x44zHvHdEh8-4" target="2_OHSR7z_x44zHvHdEh8-5" edge="1">
          <mxGeometry relative="1" as="geometry">
            <Array as="points">
              <mxPoint x="400" y="220" />
            </Array>
          </mxGeometry>
        </mxCell>
        <mxCell id="2_OHSR7z_x44zHvHdEh8-41" value="Accelerate" style="edgeLabel;html=1;align=center;verticalAlign=middle;resizable=0;points=[];fontSize=12;" parent="2_OHSR7z_x44zHvHdEh8-11" vertex="1" connectable="0">
          <mxGeometry x="0.0691" y="-1" relative="1" as="geometry">
            <mxPoint x="-1" y="69" as="offset" />
          </mxGeometry>
        </mxCell>
        <mxCell id="2_OHSR7z_x44zHvHdEh8-81" style="edgeStyle=none;curved=1;rounded=0;orthogonalLoop=1;jettySize=auto;html=1;entryX=0.5;entryY=0;entryDx=0;entryDy=0;fontSize=12;startSize=8;endSize=8;" parent="WIyWlLk6GJQsqaUBKTNV-1" source="2_OHSR7z_x44zHvHdEh8-4" target="2_OHSR7z_x44zHvHdEh8-7" edge="1">
          <mxGeometry relative="1" as="geometry">
            <Array as="points">
              <mxPoint x="100" y="220" />
            </Array>
          </mxGeometry>
        </mxCell>
        <mxCell id="2_OHSR7z_x44zHvHdEh8-82" value="Brake" style="edgeLabel;html=1;align=center;verticalAlign=middle;resizable=0;points=[];fontSize=12;" parent="2_OHSR7z_x44zHvHdEh8-81" vertex="1" connectable="0">
          <mxGeometry x="0.3009" y="1" relative="1" as="geometry">
            <mxPoint x="-6" y="17" as="offset" />
          </mxGeometry>
        </mxCell>
        <mxCell id="2_OHSR7z_x44zHvHdEh8-4" value="Select best option" style="rhombus;whiteSpace=wrap;html=1;" parent="WIyWlLk6GJQsqaUBKTNV-1" vertex="1">
          <mxGeometry x="135" y="180" width="130" height="80" as="geometry" />
        </mxCell>
        <mxCell id="2_OHSR7z_x44zHvHdEh8-14" style="edgeStyle=none;curved=1;rounded=0;orthogonalLoop=1;jettySize=auto;html=1;fontSize=12;startSize=8;endSize=8;" parent="WIyWlLk6GJQsqaUBKTNV-1" source="2_OHSR7z_x44zHvHdEh8-5" target="2_OHSR7z_x44zHvHdEh8-12" edge="1">
          <mxGeometry relative="1" as="geometry">
            <Array as="points">
              <mxPoint x="350" y="430" />
            </Array>
          </mxGeometry>
        </mxCell>
        <mxCell id="2_OHSR7z_x44zHvHdEh8-5" value="Calculate safe Acceleration" style="rounded=1;whiteSpace=wrap;html=1;fontSize=12;glass=0;strokeWidth=1;shadow=0;" parent="WIyWlLk6GJQsqaUBKTNV-1" vertex="1">
          <mxGeometry x="370" y="320" width="120" height="30" as="geometry" />
        </mxCell>
        <mxCell id="2_OHSR7z_x44zHvHdEh8-13" style="edgeStyle=none;curved=1;rounded=0;orthogonalLoop=1;jettySize=auto;html=1;fontSize=12;startSize=8;endSize=8;entryX=0.5;entryY=0;entryDx=0;entryDy=0;" parent="WIyWlLk6GJQsqaUBKTNV-1" source="2_OHSR7z_x44zHvHdEh8-6" target="2_OHSR7z_x44zHvHdEh8-12" edge="1">
          <mxGeometry relative="1" as="geometry" />
        </mxCell>
        <mxCell id="2_OHSR7z_x44zHvHdEh8-6" value="Calculate safe path" style="rounded=1;whiteSpace=wrap;html=1;fontSize=12;glass=0;strokeWidth=1;shadow=0;" parent="WIyWlLk6GJQsqaUBKTNV-1" vertex="1">
          <mxGeometry x="200" y="320" width="120" height="30" as="geometry" />
        </mxCell>
        <mxCell id="2_OHSR7z_x44zHvHdEh8-80" style="edgeStyle=none;curved=1;rounded=0;orthogonalLoop=1;jettySize=auto;html=1;entryX=0;entryY=0.5;entryDx=0;entryDy=0;fontSize=12;startSize=8;endSize=8;" parent="WIyWlLk6GJQsqaUBKTNV-1" source="2_OHSR7z_x44zHvHdEh8-7" target="2_OHSR7z_x44zHvHdEh8-12" edge="1">
          <mxGeometry relative="1" as="geometry">
            <Array as="points">
              <mxPoint x="60" y="410" />
            </Array>
          </mxGeometry>
        </mxCell>
        <mxCell id="2_OHSR7z_x44zHvHdEh8-7" value="Calculate optimal braking" style="rounded=1;whiteSpace=wrap;html=1;fontSize=12;glass=0;strokeWidth=1;shadow=0;" parent="WIyWlLk6GJQsqaUBKTNV-1" vertex="1">
          <mxGeometry x="30" y="320" width="120" height="30" as="geometry" />
        </mxCell>
        <mxCell id="2_OHSR7z_x44zHvHdEh8-78" style="edgeStyle=none;curved=1;rounded=0;orthogonalLoop=1;jettySize=auto;html=1;entryX=0.5;entryY=0;entryDx=0;entryDy=0;fontSize=12;startSize=8;endSize=8;" parent="WIyWlLk6GJQsqaUBKTNV-1" source="2_OHSR7z_x44zHvHdEh8-12" target="2_OHSR7z_x44zHvHdEh8-16" edge="1">
          <mxGeometry relative="1" as="geometry" />
        </mxCell>
        <mxCell id="2_OHSR7z_x44zHvHdEh8-79" value="Safe" style="edgeLabel;html=1;align=center;verticalAlign=middle;resizable=0;points=[];fontSize=12;" parent="2_OHSR7z_x44zHvHdEh8-78" vertex="1" connectable="0">
          <mxGeometry y="1" relative="1" as="geometry">
            <mxPoint as="offset" />
          </mxGeometry>
        </mxCell>
        <mxCell id="2_OHSR7z_x44zHvHdEh8-83" style="edgeStyle=none;curved=1;rounded=0;orthogonalLoop=1;jettySize=auto;html=1;entryX=0.5;entryY=0;entryDx=0;entryDy=0;fontSize=12;startSize=8;endSize=8;" parent="WIyWlLk6GJQsqaUBKTNV-1" source="2_OHSR7z_x44zHvHdEh8-12" target="2_OHSR7z_x44zHvHdEh8-35" edge="1">
          <mxGeometry relative="1" as="geometry">
            <Array as="points">
              <mxPoint x="380" y="470" />
            </Array>
          </mxGeometry>
        </mxCell>
        <mxCell id="2_OHSR7z_x44zHvHdEh8-84" value="Unsafe" style="edgeLabel;html=1;align=center;verticalAlign=middle;resizable=0;points=[];fontSize=12;" parent="2_OHSR7z_x44zHvHdEh8-83" vertex="1" connectable="0">
          <mxGeometry x="0.3601" y="-4" relative="1" as="geometry">
            <mxPoint as="offset" />
          </mxGeometry>
        </mxCell>
        <mxCell id="2_OHSR7z_x44zHvHdEh8-12" value="Validate safety" style="rhombus;whiteSpace=wrap;html=1;" parent="WIyWlLk6GJQsqaUBKTNV-1" vertex="1">
          <mxGeometry x="140" y="390" width="130" height="80" as="geometry" />
        </mxCell>
        <mxCell id="2_OHSR7z_x44zHvHdEh8-77" style="edgeStyle=none;curved=1;rounded=0;orthogonalLoop=1;jettySize=auto;html=1;entryX=0.5;entryY=0;entryDx=0;entryDy=0;fontSize=12;startSize=8;endSize=8;" parent="WIyWlLk6GJQsqaUBKTNV-1" source="2_OHSR7z_x44zHvHdEh8-16" target="2_OHSR7z_x44zHvHdEh8-17" edge="1">
          <mxGeometry relative="1" as="geometry" />
        </mxCell>
        <mxCell id="2_OHSR7z_x44zHvHdEh8-16" value="Execute selected action" style="rounded=1;whiteSpace=wrap;html=1;fontSize=12;glass=0;strokeWidth=1;shadow=0;" parent="WIyWlLk6GJQsqaUBKTNV-1" vertex="1">
          <mxGeometry x="145" y="510" width="120" height="30" as="geometry" />
        </mxCell>
        <mxCell id="2_OHSR7z_x44zHvHdEh8-76" style="edgeStyle=none;curved=1;rounded=0;orthogonalLoop=1;jettySize=auto;html=1;entryX=0.5;entryY=0;entryDx=0;entryDy=0;fontSize=12;startSize=8;endSize=8;" parent="WIyWlLk6GJQsqaUBKTNV-1" source="2_OHSR7z_x44zHvHdEh8-17" target="2_OHSR7z_x44zHvHdEh8-18" edge="1">
          <mxGeometry relative="1" as="geometry" />
        </mxCell>
        <mxCell id="2_OHSR7z_x44zHvHdEh8-17" value="Update system state" style="rounded=1;whiteSpace=wrap;html=1;fontSize=12;glass=0;strokeWidth=1;shadow=0;" parent="WIyWlLk6GJQsqaUBKTNV-1" vertex="1">
          <mxGeometry x="50" y="575" width="120" height="20" as="geometry" />
        </mxCell>
        <mxCell id="2_OHSR7z_x44zHvHdEh8-18" value="Broadcast action to other vehicle" style="rounded=1;whiteSpace=wrap;html=1;fontSize=12;glass=0;strokeWidth=1;shadow=0;" parent="WIyWlLk6GJQsqaUBKTNV-1" vertex="1">
          <mxGeometry x="50" y="620" width="120" height="30" as="geometry" />
        </mxCell>
        <mxCell id="2_OHSR7z_x44zHvHdEh8-71" style="edgeStyle=none;curved=1;rounded=0;orthogonalLoop=1;jettySize=auto;html=1;entryX=0.5;entryY=0;entryDx=0;entryDy=0;fontSize=12;startSize=8;endSize=8;" parent="WIyWlLk6GJQsqaUBKTNV-1" source="2_OHSR7z_x44zHvHdEh8-19" target="2_OHSR7z_x44zHvHdEh8-20" edge="1">
          <mxGeometry relative="1" as="geometry" />
        </mxCell>
        <mxCell id="2_OHSR7z_x44zHvHdEh8-19" value="Gather real time sensor data" style="shape=parallelogram;perimeter=parallelogramPerimeter;whiteSpace=wrap;html=1;fixedSize=1;" parent="WIyWlLk6GJQsqaUBKTNV-1" vertex="1">
          <mxGeometry x="110" y="680" width="190" height="30" as="geometry" />
        </mxCell>
        <mxCell id="2_OHSR7z_x44zHvHdEh8-20" value="Process vehicle data" style="rhombus;whiteSpace=wrap;html=1;" parent="WIyWlLk6GJQsqaUBKTNV-1" vertex="1">
          <mxGeometry x="110" y="740" width="140" height="80" as="geometry" />
        </mxCell>
        <mxCell id="2_OHSR7z_x44zHvHdEh8-65" style="edgeStyle=none;curved=1;rounded=0;orthogonalLoop=1;jettySize=auto;html=1;entryX=1;entryY=0.75;entryDx=0;entryDy=0;fontSize=12;startSize=8;endSize=8;" parent="WIyWlLk6GJQsqaUBKTNV-1" source="2_OHSR7z_x44zHvHdEh8-21" target="2_OHSR7z_x44zHvHdEh8-26" edge="1">
          <mxGeometry relative="1" as="geometry">
            <Array as="points">
              <mxPoint x="260" y="950" />
            </Array>
          </mxGeometry>
        </mxCell>
        <mxCell id="2_OHSR7z_x44zHvHdEh8-21" value="calculate other vehicle Trajectory" style="rounded=1;whiteSpace=wrap;html=1;fontSize=12;glass=0;strokeWidth=1;shadow=0;" parent="WIyWlLk6GJQsqaUBKTNV-1" vertex="1">
          <mxGeometry x="170" y="900" width="120" height="30" as="geometry" />
        </mxCell>
        <mxCell id="2_OHSR7z_x44zHvHdEh8-66" style="edgeStyle=none;curved=1;rounded=0;orthogonalLoop=1;jettySize=auto;html=1;entryX=0;entryY=0.75;entryDx=0;entryDy=0;fontSize=12;startSize=8;endSize=8;" parent="WIyWlLk6GJQsqaUBKTNV-1" source="2_OHSR7z_x44zHvHdEh8-22" target="2_OHSR7z_x44zHvHdEh8-26" edge="1">
          <mxGeometry relative="1" as="geometry">
            <Array as="points">
              <mxPoint x="60" y="960" />
            </Array>
          </mxGeometry>
        </mxCell>
        <mxCell id="2_OHSR7z_x44zHvHdEh8-22" value="Calculate current Trajectory" style="rounded=1;whiteSpace=wrap;html=1;fontSize=12;glass=0;strokeWidth=1;shadow=0;" parent="WIyWlLk6GJQsqaUBKTNV-1" vertex="1">
          <mxGeometry x="20" y="900" width="120" height="30" as="geometry" />
        </mxCell>
        <mxCell id="2_OHSR7z_x44zHvHdEh8-100" style="edgeStyle=none;curved=1;rounded=0;orthogonalLoop=1;jettySize=auto;html=1;entryX=0.5;entryY=0;entryDx=0;entryDy=0;fontSize=12;startSize=8;endSize=8;" parent="WIyWlLk6GJQsqaUBKTNV-1" source="2_OHSR7z_x44zHvHdEh8-23" target="2_OHSR7z_x44zHvHdEh8-21" edge="1">
          <mxGeometry relative="1" as="geometry" />
        </mxCell>
        <mxCell id="2_OHSR7z_x44zHvHdEh8-23" value="Speed, Position, Direction, Size" style="rounded=1;whiteSpace=wrap;html=1;fontSize=12;glass=0;strokeWidth=1;shadow=0;" parent="WIyWlLk6GJQsqaUBKTNV-1" vertex="1">
          <mxGeometry x="170" y="840" width="120" height="30" as="geometry" />
        </mxCell>
        <mxCell id="2_OHSR7z_x44zHvHdEh8-24" value="Speed, Position, Direction, Size" style="rounded=1;whiteSpace=wrap;html=1;fontSize=12;glass=0;strokeWidth=1;shadow=0;" parent="WIyWlLk6GJQsqaUBKTNV-1" vertex="1">
          <mxGeometry x="20" y="840" width="120" height="30" as="geometry" />
        </mxCell>
        <mxCell id="2_OHSR7z_x44zHvHdEh8-58" style="edgeStyle=none;curved=1;rounded=0;orthogonalLoop=1;jettySize=auto;html=1;fontSize=12;startSize=8;endSize=8;" parent="WIyWlLk6GJQsqaUBKTNV-1" source="2_OHSR7z_x44zHvHdEh8-25" edge="1">
          <mxGeometry relative="1" as="geometry">
            <mxPoint y="1050" as="targetPoint" />
            <Array as="points">
              <mxPoint x="10" y="1000" />
            </Array>
          </mxGeometry>
        </mxCell>
        <mxCell id="2_OHSR7z_x44zHvHdEh8-59" value="T+1s" style="edgeLabel;html=1;align=center;verticalAlign=middle;resizable=0;points=[];fontSize=12;" parent="2_OHSR7z_x44zHvHdEh8-58" vertex="1" connectable="0">
          <mxGeometry x="0.0299" y="12" relative="1" as="geometry">
            <mxPoint as="offset" />
          </mxGeometry>
        </mxCell>
        <mxCell id="2_OHSR7z_x44zHvHdEh8-62" style="edgeStyle=none;curved=1;rounded=0;orthogonalLoop=1;jettySize=auto;html=1;fontSize=12;startSize=8;endSize=8;" parent="WIyWlLk6GJQsqaUBKTNV-1" source="2_OHSR7z_x44zHvHdEh8-25" edge="1">
          <mxGeometry relative="1" as="geometry">
            <mxPoint x="330" y="1050" as="targetPoint" />
            <Array as="points">
              <mxPoint x="330" y="1010" />
            </Array>
          </mxGeometry>
        </mxCell>
        <mxCell id="2_OHSR7z_x44zHvHdEh8-63" value="T+5s" style="edgeLabel;html=1;align=center;verticalAlign=middle;resizable=0;points=[];fontSize=12;" parent="2_OHSR7z_x44zHvHdEh8-62" vertex="1" connectable="0">
          <mxGeometry x="-0.1053" y="-3" relative="1" as="geometry">
            <mxPoint as="offset" />
          </mxGeometry>
        </mxCell>
        <mxCell id="2_OHSR7z_x44zHvHdEh8-25" value="Generates time frames" style="rounded=1;whiteSpace=wrap;html=1;fontSize=12;glass=0;strokeWidth=1;shadow=0;" parent="WIyWlLk6GJQsqaUBKTNV-1" vertex="1">
          <mxGeometry x="100" y="990" width="120" height="30" as="geometry" />
        </mxCell>
        <mxCell id="2_OHSR7z_x44zHvHdEh8-64" style="edgeStyle=none;curved=1;rounded=0;orthogonalLoop=1;jettySize=auto;html=1;entryX=0.5;entryY=0;entryDx=0;entryDy=0;fontSize=12;startSize=8;endSize=8;" parent="WIyWlLk6GJQsqaUBKTNV-1" source="2_OHSR7z_x44zHvHdEh8-26" target="2_OHSR7z_x44zHvHdEh8-25" edge="1">
          <mxGeometry relative="1" as="geometry" />
        </mxCell>
        <mxCell id="2_OHSR7z_x44zHvHdEh8-26" value="Predict future paths" style="rounded=1;whiteSpace=wrap;html=1;fontSize=12;glass=0;strokeWidth=1;shadow=0;" parent="WIyWlLk6GJQsqaUBKTNV-1" vertex="1">
          <mxGeometry x="100" y="950" width="120" height="20" as="geometry" />
        </mxCell>
        <mxCell id="2_OHSR7z_x44zHvHdEh8-53" style="edgeStyle=none;curved=1;rounded=0;orthogonalLoop=1;jettySize=auto;html=1;fontSize=12;startSize=8;endSize=8;" parent="WIyWlLk6GJQsqaUBKTNV-1" source="2_OHSR7z_x44zHvHdEh8-27" target="2_OHSR7z_x44zHvHdEh8-30" edge="1">
          <mxGeometry relative="1" as="geometry">
            <Array as="points">
              <mxPoint x="310" y="1120" />
            </Array>
          </mxGeometry>
        </mxCell>
        <mxCell id="2_OHSR7z_x44zHvHdEh8-27" value="Long-term prediction" style="rounded=1;whiteSpace=wrap;html=1;fontSize=12;glass=0;strokeWidth=1;shadow=0;" parent="WIyWlLk6GJQsqaUBKTNV-1" vertex="1">
          <mxGeometry x="285" y="1054" width="120" height="20" as="geometry" />
        </mxCell>
        <mxCell id="2_OHSR7z_x44zHvHdEh8-55" style="edgeStyle=none;curved=1;rounded=0;orthogonalLoop=1;jettySize=auto;html=1;fontSize=12;startSize=8;endSize=8;" parent="WIyWlLk6GJQsqaUBKTNV-1" source="2_OHSR7z_x44zHvHdEh8-28" target="2_OHSR7z_x44zHvHdEh8-30" edge="1">
          <mxGeometry relative="1" as="geometry" />
        </mxCell>
        <mxCell id="2_OHSR7z_x44zHvHdEh8-28" value="Mid-term prediction" style="rounded=1;whiteSpace=wrap;html=1;fontSize=12;glass=0;strokeWidth=1;shadow=0;" parent="WIyWlLk6GJQsqaUBKTNV-1" vertex="1">
          <mxGeometry x="115" y="1054" width="120" height="20" as="geometry" />
        </mxCell>
        <mxCell id="2_OHSR7z_x44zHvHdEh8-29" value="Short-term prediction" style="rounded=1;whiteSpace=wrap;html=1;fontSize=12;glass=0;strokeWidth=1;shadow=0;" parent="WIyWlLk6GJQsqaUBKTNV-1" vertex="1">
          <mxGeometry x="-55" y="1054" width="120" height="20" as="geometry" />
        </mxCell>
        <mxCell id="2_OHSR7z_x44zHvHdEh8-49" style="edgeStyle=none;curved=1;rounded=0;orthogonalLoop=1;jettySize=auto;html=1;entryX=0.5;entryY=0;entryDx=0;entryDy=0;fontSize=12;startSize=8;endSize=8;" parent="WIyWlLk6GJQsqaUBKTNV-1" source="2_OHSR7z_x44zHvHdEh8-30" target="2_OHSR7z_x44zHvHdEh8-32" edge="1">
          <mxGeometry relative="1" as="geometry">
            <Array as="points">
              <mxPoint x="70" y="1200" />
            </Array>
          </mxGeometry>
        </mxCell>
        <mxCell id="2_OHSR7z_x44zHvHdEh8-50" value="No intersection" style="edgeLabel;html=1;align=center;verticalAlign=middle;resizable=0;points=[];fontSize=12;" parent="2_OHSR7z_x44zHvHdEh8-49" vertex="1" connectable="0">
          <mxGeometry x="-0.0084" y="5" relative="1" as="geometry">
            <mxPoint as="offset" />
          </mxGeometry>
        </mxCell>
        <mxCell id="2_OHSR7z_x44zHvHdEh8-30" value="Check path intersection" style="rhombus;whiteSpace=wrap;html=1;" parent="WIyWlLk6GJQsqaUBKTNV-1" vertex="1">
          <mxGeometry x="90" y="1110" width="160" height="90" as="geometry" />
        </mxCell>
        <mxCell id="2_OHSR7z_x44zHvHdEh8-94" style="edgeStyle=none;curved=1;rounded=0;orthogonalLoop=1;jettySize=auto;html=1;entryX=0;entryY=0.5;entryDx=0;entryDy=0;fontSize=12;startSize=8;endSize=8;" parent="WIyWlLk6GJQsqaUBKTNV-1" source="2_OHSR7z_x44zHvHdEh8-31" target="2_OHSR7z_x44zHvHdEh8-37" edge="1">
          <mxGeometry relative="1" as="geometry">
            <Array as="points">
              <mxPoint x="260" y="1310" />
            </Array>
          </mxGeometry>
        </mxCell>
        <mxCell id="2_OHSR7z_x44zHvHdEh8-31" value="Calculate time to collision" style="rounded=1;whiteSpace=wrap;html=1;fontSize=12;glass=0;strokeWidth=1;shadow=0;" parent="WIyWlLk6GJQsqaUBKTNV-1" vertex="1">
          <mxGeometry x="175" y="1230" width="120" height="30" as="geometry" />
        </mxCell>
        <mxCell id="2_OHSR7z_x44zHvHdEh8-97" style="edgeStyle=none;curved=1;rounded=0;orthogonalLoop=1;jettySize=auto;html=1;fontSize=12;startSize=8;endSize=8;" parent="WIyWlLk6GJQsqaUBKTNV-1" source="2_OHSR7z_x44zHvHdEh8-32" target="2_OHSR7z_x44zHvHdEh8-33" edge="1">
          <mxGeometry relative="1" as="geometry" />
        </mxCell>
        <mxCell id="2_OHSR7z_x44zHvHdEh8-32" value="Path is safe" style="rounded=1;whiteSpace=wrap;html=1;fontSize=12;glass=0;strokeWidth=1;shadow=0;" parent="WIyWlLk6GJQsqaUBKTNV-1" vertex="1">
          <mxGeometry x="25" y="1230" width="120" height="30" as="geometry" />
        </mxCell>
        <mxCell id="2_OHSR7z_x44zHvHdEh8-98" style="edgeStyle=none;curved=1;rounded=0;orthogonalLoop=1;jettySize=auto;html=1;fontSize=12;startSize=8;endSize=8;entryX=0.821;entryY=1.133;entryDx=0;entryDy=0;entryPerimeter=0;" parent="WIyWlLk6GJQsqaUBKTNV-1" source="2_OHSR7z_x44zHvHdEh8-33" target="2_OHSR7z_x44zHvHdEh8-19" edge="1">
          <mxGeometry relative="1" as="geometry">
            <mxPoint x="280" y="720" as="targetPoint" />
            <Array as="points">
              <mxPoint x="270" y="1290" />
              <mxPoint x="320" y="1260" />
              <mxPoint x="460" y="1070" />
              <mxPoint x="380" y="870" />
              <mxPoint x="270" y="720" />
            </Array>
          </mxGeometry>
        </mxCell>
        <mxCell id="BHSWG0S1xIo2h7gbSZRy-6" value="" style="edgeStyle=orthogonalEdgeStyle;rounded=0;orthogonalLoop=1;jettySize=auto;html=1;" edge="1" parent="WIyWlLk6GJQsqaUBKTNV-1" source="2_OHSR7z_x44zHvHdEh8-33" target="BHSWG0S1xIo2h7gbSZRy-5">
          <mxGeometry relative="1" as="geometry" />
        </mxCell>
        <mxCell id="2_OHSR7z_x44zHvHdEh8-33" value="Continue monitoring" style="rounded=1;whiteSpace=wrap;html=1;fontSize=12;glass=0;strokeWidth=1;shadow=0;" parent="WIyWlLk6GJQsqaUBKTNV-1" vertex="1">
          <mxGeometry x="100" y="1310" width="120" height="20" as="geometry" />
        </mxCell>
        <mxCell id="2_OHSR7z_x44zHvHdEh8-34" value="Start predictive analysis" style="rounded=1;whiteSpace=wrap;html=1;fontSize=12;glass=0;strokeWidth=1;shadow=0;" parent="WIyWlLk6GJQsqaUBKTNV-1" vertex="1">
          <mxGeometry x="295" y="620" width="120" height="30" as="geometry" />
        </mxCell>
        <mxCell id="2_OHSR7z_x44zHvHdEh8-85" style="edgeStyle=none;curved=1;rounded=0;orthogonalLoop=1;jettySize=auto;html=1;entryX=0.5;entryY=1;entryDx=0;entryDy=0;fontSize=12;startSize=8;endSize=8;exitX=0.75;exitY=0;exitDx=0;exitDy=0;" parent="WIyWlLk6GJQsqaUBKTNV-1" source="2_OHSR7z_x44zHvHdEh8-35" target="2_OHSR7z_x44zHvHdEh8-1" edge="1">
          <mxGeometry relative="1" as="geometry">
            <Array as="points" />
          </mxGeometry>
        </mxCell>
        <mxCell id="2_OHSR7z_x44zHvHdEh8-35" value="Recalculate options" style="rounded=1;whiteSpace=wrap;html=1;fontSize=12;glass=0;strokeWidth=1;shadow=0;" parent="WIyWlLk6GJQsqaUBKTNV-1" vertex="1">
          <mxGeometry x="414" y="520" width="120" height="20" as="geometry" />
        </mxCell>
        <mxCell id="2_OHSR7z_x44zHvHdEh8-36" value="Issue Early Warning" style="rounded=1;whiteSpace=wrap;html=1;fontSize=12;glass=0;strokeWidth=1;shadow=0;" parent="WIyWlLk6GJQsqaUBKTNV-1" vertex="1">
          <mxGeometry x="680" y="20" width="120" height="20" as="geometry" />
        </mxCell>
        <mxCell id="2_OHSR7z_x44zHvHdEh8-86" style="edgeStyle=none;curved=1;rounded=0;orthogonalLoop=1;jettySize=auto;html=1;entryX=0;entryY=0.75;entryDx=0;entryDy=0;fontSize=12;startSize=8;endSize=8;" parent="WIyWlLk6GJQsqaUBKTNV-1" source="2_OHSR7z_x44zHvHdEh8-37" target="2_OHSR7z_x44zHvHdEh8-39" edge="1">
          <mxGeometry relative="1" as="geometry">
            <Array as="points">
              <mxPoint x="471" y="1360" />
            </Array>
          </mxGeometry>
        </mxCell>
        <mxCell id="2_OHSR7z_x44zHvHdEh8-87" value="Medium risk 2-5s" style="edgeLabel;html=1;align=center;verticalAlign=middle;resizable=0;points=[];fontSize=12;" parent="2_OHSR7z_x44zHvHdEh8-86" vertex="1" connectable="0">
          <mxGeometry x="0.0416" y="14" relative="1" as="geometry">
            <mxPoint as="offset" />
          </mxGeometry>
        </mxCell>
        <mxCell id="2_OHSR7z_x44zHvHdEh8-91" style="edgeStyle=none;curved=1;rounded=0;orthogonalLoop=1;jettySize=auto;html=1;entryX=0.75;entryY=1;entryDx=0;entryDy=0;fontSize=12;startSize=8;endSize=8;" parent="WIyWlLk6GJQsqaUBKTNV-1" source="2_OHSR7z_x44zHvHdEh8-37" target="2_OHSR7z_x44zHvHdEh8-36" edge="1">
          <mxGeometry relative="1" as="geometry">
            <Array as="points">
              <mxPoint x="770" y="1240" />
              <mxPoint x="770" y="750" />
            </Array>
          </mxGeometry>
        </mxCell>
        <mxCell id="2_OHSR7z_x44zHvHdEh8-92" value="Low risk &amp;gt;5s" style="edgeLabel;html=1;align=center;verticalAlign=middle;resizable=0;points=[];fontSize=12;" parent="2_OHSR7z_x44zHvHdEh8-91" vertex="1" connectable="0">
          <mxGeometry x="0.462" y="-1" relative="1" as="geometry">
            <mxPoint as="offset" />
          </mxGeometry>
        </mxCell>
        <mxCell id="2_OHSR7z_x44zHvHdEh8-37" value="Assess risk level&amp;nbsp;" style="rhombus;whiteSpace=wrap;html=1;" parent="WIyWlLk6GJQsqaUBKTNV-1" vertex="1">
          <mxGeometry x="435" y="1240" width="130" height="80" as="geometry" />
        </mxCell>
        <mxCell id="2_OHSR7z_x44zHvHdEh8-90" style="edgeStyle=none;curved=1;rounded=0;orthogonalLoop=1;jettySize=auto;html=1;entryX=1;entryY=0.5;entryDx=0;entryDy=0;fontSize=12;startSize=8;endSize=8;" parent="WIyWlLk6GJQsqaUBKTNV-1" source="2_OHSR7z_x44zHvHdEh8-38" target="2_OHSR7z_x44zHvHdEh8-40" edge="1">
          <mxGeometry relative="1" as="geometry">
            <Array as="points">
              <mxPoint x="630" y="1460" />
            </Array>
          </mxGeometry>
        </mxCell>
        <mxCell id="2_OHSR7z_x44zHvHdEh8-38" value="Immediate action required" style="rounded=1;whiteSpace=wrap;html=1;fontSize=12;glass=0;strokeWidth=1;shadow=0;" parent="WIyWlLk6GJQsqaUBKTNV-1" vertex="1">
          <mxGeometry x="701" y="1350" width="120" height="30" as="geometry" />
        </mxCell>
        <mxCell id="2_OHSR7z_x44zHvHdEh8-93" style="edgeStyle=none;curved=1;rounded=0;orthogonalLoop=1;jettySize=auto;html=1;entryX=1;entryY=0.5;entryDx=0;entryDy=0;fontSize=12;startSize=8;endSize=8;" parent="WIyWlLk6GJQsqaUBKTNV-1" source="2_OHSR7z_x44zHvHdEh8-39" target="2_OHSR7z_x44zHvHdEh8-1" edge="1">
          <mxGeometry relative="1" as="geometry">
            <Array as="points">
              <mxPoint x="650" y="1040" />
              <mxPoint x="660" y="720" />
              <mxPoint x="730" y="90" />
            </Array>
          </mxGeometry>
        </mxCell>
        <mxCell id="2_OHSR7z_x44zHvHdEh8-39" value="Prepare avoidance options" style="rounded=1;whiteSpace=wrap;html=1;fontSize=12;glass=0;strokeWidth=1;shadow=0;" parent="WIyWlLk6GJQsqaUBKTNV-1" vertex="1">
          <mxGeometry x="551" y="1350" width="120" height="30" as="geometry" />
        </mxCell>
        <mxCell id="2_OHSR7z_x44zHvHdEh8-95" style="edgeStyle=none;curved=1;rounded=0;orthogonalLoop=1;jettySize=auto;html=1;entryX=1;entryY=0.5;entryDx=0;entryDy=0;fontSize=12;startSize=8;endSize=8;exitX=0.383;exitY=-0.133;exitDx=0;exitDy=0;exitPerimeter=0;" parent="WIyWlLk6GJQsqaUBKTNV-1" source="2_OHSR7z_x44zHvHdEh8-40" target="2_OHSR7z_x44zHvHdEh8-16" edge="1">
          <mxGeometry relative="1" as="geometry">
            <Array as="points">
              <mxPoint x="650" y="550" />
            </Array>
          </mxGeometry>
        </mxCell>
        <mxCell id="2_OHSR7z_x44zHvHdEh8-40" value="Emergency avoidance protocol" style="rounded=1;whiteSpace=wrap;html=1;fontSize=12;glass=0;strokeWidth=1;shadow=0;" parent="WIyWlLk6GJQsqaUBKTNV-1" vertex="1">
          <mxGeometry x="316" y="1420" width="120" height="30" as="geometry" />
        </mxCell>
        <mxCell id="2_OHSR7z_x44zHvHdEh8-51" style="edgeStyle=none;curved=1;rounded=0;orthogonalLoop=1;jettySize=auto;html=1;entryX=0.583;entryY=0.033;entryDx=0;entryDy=0;entryPerimeter=0;fontSize=12;startSize=8;endSize=8;" parent="WIyWlLk6GJQsqaUBKTNV-1" source="2_OHSR7z_x44zHvHdEh8-30" target="2_OHSR7z_x44zHvHdEh8-31" edge="1">
          <mxGeometry relative="1" as="geometry">
            <Array as="points">
              <mxPoint x="250" y="1200" />
            </Array>
          </mxGeometry>
        </mxCell>
        <mxCell id="2_OHSR7z_x44zHvHdEh8-52" value="Intersection" style="edgeLabel;html=1;align=center;verticalAlign=middle;resizable=0;points=[];fontSize=12;" parent="2_OHSR7z_x44zHvHdEh8-51" vertex="1" connectable="0">
          <mxGeometry x="0.0128" y="-8" relative="1" as="geometry">
            <mxPoint as="offset" />
          </mxGeometry>
        </mxCell>
        <mxCell id="2_OHSR7z_x44zHvHdEh8-57" style="edgeStyle=none;curved=1;rounded=0;orthogonalLoop=1;jettySize=auto;html=1;entryX=0.181;entryY=0.378;entryDx=0;entryDy=0;entryPerimeter=0;fontSize=12;startSize=8;endSize=8;" parent="WIyWlLk6GJQsqaUBKTNV-1" edge="1">
          <mxGeometry relative="1" as="geometry">
            <mxPoint x="9" y="1075" as="sourcePoint" />
            <mxPoint x="117.96000000000004" y="1139.02" as="targetPoint" />
            <Array as="points">
              <mxPoint x="39" y="1115" />
            </Array>
          </mxGeometry>
        </mxCell>
        <mxCell id="2_OHSR7z_x44zHvHdEh8-60" style="edgeStyle=none;curved=1;rounded=0;orthogonalLoop=1;jettySize=auto;html=1;entryX=0.45;entryY=0.2;entryDx=0;entryDy=0;entryPerimeter=0;fontSize=12;startSize=8;endSize=8;" parent="WIyWlLk6GJQsqaUBKTNV-1" source="2_OHSR7z_x44zHvHdEh8-25" target="2_OHSR7z_x44zHvHdEh8-28" edge="1">
          <mxGeometry relative="1" as="geometry" />
        </mxCell>
        <mxCell id="2_OHSR7z_x44zHvHdEh8-61" value="T+3s" style="edgeLabel;html=1;align=center;verticalAlign=middle;resizable=0;points=[];fontSize=12;" parent="2_OHSR7z_x44zHvHdEh8-60" vertex="1" connectable="0">
          <mxGeometry x="-0.305" y="1" relative="1" as="geometry">
            <mxPoint as="offset" />
          </mxGeometry>
        </mxCell>
        <mxCell id="2_OHSR7z_x44zHvHdEh8-67" style="edgeStyle=none;curved=1;rounded=0;orthogonalLoop=1;jettySize=auto;html=1;entryX=0.317;entryY=-0.1;entryDx=0;entryDy=0;entryPerimeter=0;fontSize=12;startSize=8;endSize=8;" parent="WIyWlLk6GJQsqaUBKTNV-1" source="2_OHSR7z_x44zHvHdEh8-20" target="2_OHSR7z_x44zHvHdEh8-24" edge="1">
          <mxGeometry relative="1" as="geometry">
            <Array as="points">
              <mxPoint x="50" y="780" />
            </Array>
          </mxGeometry>
        </mxCell>
        <mxCell id="2_OHSR7z_x44zHvHdEh8-68" value="Own vehicle" style="edgeLabel;html=1;align=center;verticalAlign=middle;resizable=0;points=[];fontSize=12;" parent="2_OHSR7z_x44zHvHdEh8-67" vertex="1" connectable="0">
          <mxGeometry x="0.3356" y="10" relative="1" as="geometry">
            <mxPoint x="-1" as="offset" />
          </mxGeometry>
        </mxCell>
        <mxCell id="2_OHSR7z_x44zHvHdEh8-69" style="edgeStyle=none;curved=1;rounded=0;orthogonalLoop=1;jettySize=auto;html=1;entryX=0.65;entryY=-0.067;entryDx=0;entryDy=0;entryPerimeter=0;fontSize=12;startSize=8;endSize=8;" parent="WIyWlLk6GJQsqaUBKTNV-1" source="2_OHSR7z_x44zHvHdEh8-20" target="2_OHSR7z_x44zHvHdEh8-23" edge="1">
          <mxGeometry relative="1" as="geometry">
            <Array as="points">
              <mxPoint x="310" y="780" />
            </Array>
          </mxGeometry>
        </mxCell>
        <mxCell id="2_OHSR7z_x44zHvHdEh8-70" value="Other vehicle" style="edgeLabel;html=1;align=center;verticalAlign=middle;resizable=0;points=[];fontSize=12;" parent="2_OHSR7z_x44zHvHdEh8-69" vertex="1" connectable="0">
          <mxGeometry x="0.3569" y="-3" relative="1" as="geometry">
            <mxPoint as="offset" />
          </mxGeometry>
        </mxCell>
        <mxCell id="2_OHSR7z_x44zHvHdEh8-73" style="edgeStyle=none;curved=1;rounded=0;orthogonalLoop=1;jettySize=auto;html=1;entryX=0.337;entryY=0.067;entryDx=0;entryDy=0;entryPerimeter=0;fontSize=12;startSize=8;endSize=8;" parent="WIyWlLk6GJQsqaUBKTNV-1" source="2_OHSR7z_x44zHvHdEh8-18" target="2_OHSR7z_x44zHvHdEh8-19" edge="1">
          <mxGeometry relative="1" as="geometry" />
        </mxCell>
        <mxCell id="2_OHSR7z_x44zHvHdEh8-74" style="edgeStyle=none;curved=1;rounded=0;orthogonalLoop=1;jettySize=auto;html=1;entryX=0.895;entryY=0;entryDx=0;entryDy=0;entryPerimeter=0;fontSize=12;startSize=8;endSize=8;" parent="WIyWlLk6GJQsqaUBKTNV-1" source="2_OHSR7z_x44zHvHdEh8-34" target="2_OHSR7z_x44zHvHdEh8-19" edge="1">
          <mxGeometry relative="1" as="geometry" />
        </mxCell>
        <mxCell id="2_OHSR7z_x44zHvHdEh8-88" style="edgeStyle=none;curved=1;rounded=0;orthogonalLoop=1;jettySize=auto;html=1;entryX=0.392;entryY=-0.067;entryDx=0;entryDy=0;entryPerimeter=0;fontSize=12;startSize=8;endSize=8;" parent="WIyWlLk6GJQsqaUBKTNV-1" source="2_OHSR7z_x44zHvHdEh8-37" target="2_OHSR7z_x44zHvHdEh8-38" edge="1">
          <mxGeometry relative="1" as="geometry">
            <Array as="points">
              <mxPoint x="701" y="1280" />
            </Array>
          </mxGeometry>
        </mxCell>
        <mxCell id="2_OHSR7z_x44zHvHdEh8-89" value="high risk &amp;lt;2s" style="edgeLabel;html=1;align=center;verticalAlign=middle;resizable=0;points=[];fontSize=12;" parent="2_OHSR7z_x44zHvHdEh8-88" vertex="1" connectable="0">
          <mxGeometry x="0.4851" y="-15" relative="1" as="geometry">
            <mxPoint x="1" as="offset" />
          </mxGeometry>
        </mxCell>
        <mxCell id="2_OHSR7z_x44zHvHdEh8-96" style="edgeStyle=none;curved=1;rounded=0;orthogonalLoop=1;jettySize=auto;html=1;entryX=0.692;entryY=-0.1;entryDx=0;entryDy=0;entryPerimeter=0;fontSize=12;startSize=8;endSize=8;" parent="WIyWlLk6GJQsqaUBKTNV-1" target="2_OHSR7z_x44zHvHdEh8-1" edge="1">
          <mxGeometry relative="1" as="geometry">
            <mxPoint x="680" y="30" as="sourcePoint" />
            <Array as="points">
              <mxPoint x="550" />
            </Array>
          </mxGeometry>
        </mxCell>
        <mxCell id="2_OHSR7z_x44zHvHdEh8-101" style="edgeStyle=none;curved=1;rounded=0;orthogonalLoop=1;jettySize=auto;html=1;entryX=0.5;entryY=0.333;entryDx=0;entryDy=0;entryPerimeter=0;fontSize=12;startSize=8;endSize=8;" parent="WIyWlLk6GJQsqaUBKTNV-1" edge="1">
          <mxGeometry relative="1" as="geometry">
            <mxPoint x="80" y="871" as="sourcePoint" />
            <mxPoint x="80" y="900.99" as="targetPoint" />
          </mxGeometry>
        </mxCell>
        <mxCell id="BHSWG0S1xIo2h7gbSZRy-2" value="" style="edgeStyle=orthogonalEdgeStyle;rounded=0;orthogonalLoop=1;jettySize=auto;html=1;" edge="1" parent="WIyWlLk6GJQsqaUBKTNV-1" source="BHSWG0S1xIo2h7gbSZRy-0" target="2_OHSR7z_x44zHvHdEh8-1">
          <mxGeometry relative="1" as="geometry">
            <Array as="points">
              <mxPoint x="520" y="20" />
              <mxPoint x="520" y="20" />
            </Array>
          </mxGeometry>
        </mxCell>
        <mxCell id="BHSWG0S1xIo2h7gbSZRy-0" value="Start" style="whiteSpace=wrap;html=1;rounded=1;" vertex="1" parent="WIyWlLk6GJQsqaUBKTNV-1">
          <mxGeometry x="470" y="-70" width="100" height="35" as="geometry" />
        </mxCell>
        <mxCell id="BHSWG0S1xIo2h7gbSZRy-5" value="Stop" style="rounded=1;whiteSpace=wrap;html=1;fontSize=12;glass=0;strokeWidth=1;shadow=0;" vertex="1" parent="WIyWlLk6GJQsqaUBKTNV-1">
          <mxGeometry x="120" y="1410" width="80" height="20" as="geometry" />
        </mxCell>
      </root>
    </mxGraphModel>
  </diagram>
</mxfile>
